<?xml version="1.0" encoding="UTF-8" standalone="no"?>
<!DOCTYPE svg PUBLIC "-//W3C//DTD SVG 1.1//EN"
 "http://www.w3.org/Graphics/SVG/1.1/DTD/svg11.dtd">
<!-- Generated by graphviz version 2.40.1 (20161225.0304)
 -->
<!-- Title: G Pages: 1 -->
<svg width="280pt" height="527pt"
 viewBox="0.00 0.00 280.44 527.00" xmlns="http://www.w3.org/2000/svg" xmlns:xlink="http://www.w3.org/1999/xlink">
<g id="graph0" class="graph" transform="scale(1 1) rotate(0) translate(4 523)">
<title>G</title>
<polygon fill="#ffffff" stroke="transparent" points="-4,4 -4,-523 276.4365,-523 276.4365,4 -4,4"/>
<g id="clust1" class="cluster">
<title>cluster_Global</title>
<path fill="none" stroke="#c0c0c0" d="M20,-8C20,-8 252.4365,-8 252.4365,-8 258.4365,-8 264.4365,-14 264.4365,-20 264.4365,-20 264.4365,-499 264.4365,-499 264.4365,-505 258.4365,-511 252.4365,-511 252.4365,-511 20,-511 20,-511 14,-511 8,-505 8,-499 8,-499 8,-20 8,-20 8,-14 14,-8 20,-8"/>
<text text-anchor="middle" x="136.2183" y="-498.2" font-family="Times,serif" font-size="11.00" fill="#c0c0c0">Global</text>
</g>
<!-- \\WordPress_Security_Txt_Sanitizer -->
<g id="node1" class="node">
<title>\\WordPress_Security_Txt_Sanitizer</title>
<polygon fill="none" stroke="#000000" points="249.9528,-484 22.4838,-484 22.4838,-448 249.9528,-448 249.9528,-484"/>
<text text-anchor="middle" x="136.2183" y="-462.7" font-family="Courier,monospace" font-size="11.00" fill="#000000">WordPress_Security_Txt_Sanitizer</text>
</g>
<!-- \\WordPress_Security_Txt_Deactivator -->
<g id="node2" class="node">
<title>\\WordPress_Security_Txt_Deactivator</title>
<polygon fill="none" stroke="#000000" points="256.6552,-430 15.7813,-430 15.7813,-394 256.6552,-394 256.6552,-430"/>
<text text-anchor="middle" x="136.2183" y="-408.7" font-family="Courier,monospace" font-size="11.00" fill="#000000">WordPress_Security_Txt_Deactivator</text>
</g>
<!-- \\WordPress_Security_Txt_i18n -->
<g id="node3" class="node">
<title>\\WordPress_Security_Txt_i18n</title>
<polygon fill="none" stroke="#000000" points="233.4474,-376 38.9891,-376 38.9891,-340 233.4474,-340 233.4474,-376"/>
<text text-anchor="middle" x="136.2183" y="-354.7" font-family="Courier,monospace" font-size="11.00" fill="#000000">WordPress_Security_Txt_i18n</text>
</g>
<!-- \\WordPress_Security_Txt -->
<g id="node4" class="node">
<title>\\WordPress_Security_Txt</title>
<polygon fill="none" stroke="#000000" points="216.942,-322 55.4945,-322 55.4945,-286 216.942,-286 216.942,-322"/>
<text text-anchor="middle" x="136.2183" y="-300.7" font-family="Courier,monospace" font-size="11.00" fill="#000000">WordPress_Security_Txt</text>
</g>
<!-- \\WordPress_Security_Txt_Public -->
<g id="node5" class="node">
<title>\\WordPress_Security_Txt_Public</title>
<polygon fill="none" stroke="#000000" points="240.1499,-268 32.2867,-268 32.2867,-232 240.1499,-232 240.1499,-268"/>
<text text-anchor="middle" x="136.2183" y="-246.7" font-family="Courier,monospace" font-size="11.00" fill="#000000">WordPress_Security_Txt_Public</text>
</g>
<!-- \\WordPress_Security_Txt_Loader -->
<g id="node6" class="node">
<title>\\WordPress_Security_Txt_Loader</title>
<polygon fill="none" stroke="#000000" points="240.1499,-214 32.2867,-214 32.2867,-178 240.1499,-178 240.1499,-214"/>
<text text-anchor="middle" x="136.2183" y="-192.7" font-family="Courier,monospace" font-size="11.00" fill="#000000">WordPress_Security_Txt_Loader</text>
</g>
<!-- \\WordPress_Security_Txt_Activator -->
<g id="node7" class="node">
<title>\\WordPress_Security_Txt_Activator</title>
<polygon fill="none" stroke="#000000" points="249.9528,-160 22.4838,-160 22.4838,-124 249.9528,-124 249.9528,-160"/>
<text text-anchor="middle" x="136.2183" y="-138.7" font-family="Courier,monospace" font-size="11.00" fill="#000000">WordPress_Security_Txt_Activator</text>
</g>
<!-- \\WordPress_Security_Txt_Admin -->
<g id="node8" class="node">
<title>\\WordPress_Security_Txt_Admin</title>
<polygon fill="none" stroke="#000000" points="236.5484,-106 35.8881,-106 35.8881,-70 236.5484,-70 236.5484,-106"/>
<text text-anchor="middle" x="136.2183" y="-84.7" font-family="Courier,monospace" font-size="11.00" fill="#000000">WordPress_Security_Txt_Admin</text>
</g>
<!-- \\WordPress_Security_Txt_Field -->
<g id="node9" class="node">
<title>\\WordPress_Security_Txt_Field</title>
<polygon fill="none" stroke="#000000" points="236.5484,-52 35.8881,-52 35.8881,-16 236.5484,-16 236.5484,-52"/>
<text text-anchor="middle" x="136.2183" y="-30.7" font-family="Courier,monospace" font-size="11.00" fill="#000000">WordPress_Security_Txt_Field</text>
</g>
</g>
</svg>
